<svg width="398" height="382" viewBox="0 0 398 382" fill="none" xmlns="http://www.w3.org/2000/svg">
<path fill-rule="evenodd" clip-rule="evenodd" d="M384.618 260C387.5 252.864 389.947 245.521 391.93 238H207V227H394.471C396.092 218.839 397.173 210.494 397.676 202H0.324506C6.26225 302.368 92.942 382 199 382C232.517 382 264.098 374.047 291.808 360H258V334H330V334.781C338.298 327.811 345.987 320.189 352.981 312H207V301H361.704C364.801 296.789 367.724 292.453 370.464 288H312V260H384.618ZM394.666 156C396.856 167.347 398 179.045 398 191H0C0 85.5136 89.0953 0 199 0C260.087 0 314.745 26.418 351.249 68H249V93H369.844C372.484 97.2299 374.957 101.566 377.257 106H207V117H382.514C383.669 119.637 384.765 122.304 385.799 125H349V156H394.666ZM129.5 151C156.286 151 178 129.286 178 102.5C178 75.7142 156.286 54 129.5 54C102.714 54 81 75.7142 81 102.5C81 129.286 102.714 151 129.5 151Z" fill="black"/>
</svg>
